<mxfile host="app.diagrams.net" modified="2023-10-10T17:24:00.323Z" agent="Mozilla/5.0 (Windows NT 10.0; Win64; x64) AppleWebKit/537.36 (KHTML, like Gecko) Chrome/117.0.0.0 Safari/537.36" etag="WL6Xc8jUVBlFx4jK7Yr9" version="22.0.4" type="github">
  <diagram name="Page-1" id="74e2e168-ea6b-b213-b513-2b3c1d86103e">
    <mxGraphModel dx="1434" dy="758" grid="1" gridSize="10" guides="1" tooltips="1" connect="1" arrows="1" fold="1" page="1" pageScale="1" pageWidth="1100" pageHeight="850" background="none" math="0" shadow="0">
      <root>
        <mxCell id="0" />
        <mxCell id="1" parent="0" />
        <mxCell id="vbwBbtSfKdVoJIx_XN5K-31" value="" style="edgeStyle=orthogonalEdgeStyle;rounded=0;orthogonalLoop=1;jettySize=auto;html=1;" edge="1" parent="1" source="vbwBbtSfKdVoJIx_XN5K-3" target="vbwBbtSfKdVoJIx_XN5K-4">
          <mxGeometry relative="1" as="geometry" />
        </mxCell>
        <mxCell id="vbwBbtSfKdVoJIx_XN5K-3" value="INÍCIO" style="rounded=1;whiteSpace=wrap;html=1;arcSize=50;" vertex="1" parent="1">
          <mxGeometry x="118.75" y="70" width="117.5" height="40" as="geometry" />
        </mxCell>
        <mxCell id="vbwBbtSfKdVoJIx_XN5K-32" value="" style="edgeStyle=orthogonalEdgeStyle;rounded=0;orthogonalLoop=1;jettySize=auto;html=1;" edge="1" parent="1" source="vbwBbtSfKdVoJIx_XN5K-4" target="vbwBbtSfKdVoJIx_XN5K-8">
          <mxGeometry relative="1" as="geometry" />
        </mxCell>
        <mxCell id="vbwBbtSfKdVoJIx_XN5K-4" value="Digite o número do candidato" style="whiteSpace=wrap;html=1;aspect=fixed;" vertex="1" parent="1">
          <mxGeometry x="130" y="140" width="95" height="95" as="geometry" />
        </mxCell>
        <mxCell id="vbwBbtSfKdVoJIx_XN5K-33" value="" style="edgeStyle=orthogonalEdgeStyle;rounded=0;orthogonalLoop=1;jettySize=auto;html=1;" edge="1" parent="1" source="vbwBbtSfKdVoJIx_XN5K-8" target="vbwBbtSfKdVoJIx_XN5K-10">
          <mxGeometry relative="1" as="geometry" />
        </mxCell>
        <mxCell id="vbwBbtSfKdVoJIx_XN5K-35" value="" style="edgeStyle=orthogonalEdgeStyle;rounded=0;orthogonalLoop=1;jettySize=auto;html=1;" edge="1" parent="1" source="vbwBbtSfKdVoJIx_XN5K-8" target="vbwBbtSfKdVoJIx_XN5K-9">
          <mxGeometry relative="1" as="geometry" />
        </mxCell>
        <mxCell id="vbwBbtSfKdVoJIx_XN5K-8" value="Caso o número = 1" style="rhombus;whiteSpace=wrap;html=1;" vertex="1" parent="1">
          <mxGeometry x="112.5" y="280" width="130" height="110" as="geometry" />
        </mxCell>
        <mxCell id="vbwBbtSfKdVoJIx_XN5K-9" value="Candidato 1 recebe 1 voto" style="whiteSpace=wrap;html=1;aspect=fixed;" vertex="1" parent="1">
          <mxGeometry x="320" y="295" width="80" height="80" as="geometry" />
        </mxCell>
        <mxCell id="vbwBbtSfKdVoJIx_XN5K-34" value="" style="edgeStyle=orthogonalEdgeStyle;rounded=0;orthogonalLoop=1;jettySize=auto;html=1;" edge="1" parent="1" source="vbwBbtSfKdVoJIx_XN5K-10" target="vbwBbtSfKdVoJIx_XN5K-12">
          <mxGeometry relative="1" as="geometry" />
        </mxCell>
        <mxCell id="vbwBbtSfKdVoJIx_XN5K-36" value="" style="edgeStyle=orthogonalEdgeStyle;rounded=0;orthogonalLoop=1;jettySize=auto;html=1;" edge="1" parent="1" source="vbwBbtSfKdVoJIx_XN5K-10" target="vbwBbtSfKdVoJIx_XN5K-11">
          <mxGeometry relative="1" as="geometry" />
        </mxCell>
        <mxCell id="vbwBbtSfKdVoJIx_XN5K-10" value="Caso o número = 2" style="rhombus;whiteSpace=wrap;html=1;" vertex="1" parent="1">
          <mxGeometry x="112.5" y="430" width="130" height="110" as="geometry" />
        </mxCell>
        <mxCell id="vbwBbtSfKdVoJIx_XN5K-11" value="Candidato 2 recebe 1 voto" style="whiteSpace=wrap;html=1;aspect=fixed;" vertex="1" parent="1">
          <mxGeometry x="320" y="445" width="80" height="80" as="geometry" />
        </mxCell>
        <mxCell id="vbwBbtSfKdVoJIx_XN5K-37" value="" style="edgeStyle=orthogonalEdgeStyle;rounded=0;orthogonalLoop=1;jettySize=auto;html=1;" edge="1" parent="1" source="vbwBbtSfKdVoJIx_XN5K-12" target="vbwBbtSfKdVoJIx_XN5K-13">
          <mxGeometry relative="1" as="geometry" />
        </mxCell>
        <mxCell id="vbwBbtSfKdVoJIx_XN5K-38" value="" style="edgeStyle=orthogonalEdgeStyle;rounded=0;orthogonalLoop=1;jettySize=auto;html=1;" edge="1" parent="1" source="vbwBbtSfKdVoJIx_XN5K-12" target="vbwBbtSfKdVoJIx_XN5K-14">
          <mxGeometry relative="1" as="geometry" />
        </mxCell>
        <mxCell id="vbwBbtSfKdVoJIx_XN5K-12" value="Caso o número = 3" style="rhombus;whiteSpace=wrap;html=1;" vertex="1" parent="1">
          <mxGeometry x="112.5" y="600" width="130" height="110" as="geometry" />
        </mxCell>
        <mxCell id="vbwBbtSfKdVoJIx_XN5K-13" value="Candidato 3 recebe 1 voto" style="whiteSpace=wrap;html=1;aspect=fixed;" vertex="1" parent="1">
          <mxGeometry x="320" y="615" width="80" height="80" as="geometry" />
        </mxCell>
        <mxCell id="vbwBbtSfKdVoJIx_XN5K-14" value="1" style="ellipse;whiteSpace=wrap;html=1;aspect=fixed;" vertex="1" parent="1">
          <mxGeometry x="157.5" y="730" width="40" height="40" as="geometry" />
        </mxCell>
        <mxCell id="vbwBbtSfKdVoJIx_XN5K-39" value="" style="edgeStyle=orthogonalEdgeStyle;rounded=0;orthogonalLoop=1;jettySize=auto;html=1;" edge="1" parent="1" source="vbwBbtSfKdVoJIx_XN5K-15" target="vbwBbtSfKdVoJIx_XN5K-16">
          <mxGeometry relative="1" as="geometry" />
        </mxCell>
        <mxCell id="vbwBbtSfKdVoJIx_XN5K-15" value="1" style="ellipse;whiteSpace=wrap;html=1;aspect=fixed;" vertex="1" parent="1">
          <mxGeometry x="615" y="50" width="40" height="40" as="geometry" />
        </mxCell>
        <mxCell id="vbwBbtSfKdVoJIx_XN5K-40" value="" style="edgeStyle=orthogonalEdgeStyle;rounded=0;orthogonalLoop=1;jettySize=auto;html=1;" edge="1" parent="1" source="vbwBbtSfKdVoJIx_XN5K-16" target="vbwBbtSfKdVoJIx_XN5K-18">
          <mxGeometry relative="1" as="geometry" />
        </mxCell>
        <mxCell id="vbwBbtSfKdVoJIx_XN5K-41" value="" style="edgeStyle=orthogonalEdgeStyle;rounded=0;orthogonalLoop=1;jettySize=auto;html=1;" edge="1" parent="1" source="vbwBbtSfKdVoJIx_XN5K-16" target="vbwBbtSfKdVoJIx_XN5K-17">
          <mxGeometry relative="1" as="geometry" />
        </mxCell>
        <mxCell id="vbwBbtSfKdVoJIx_XN5K-16" value="Caso o número = 5" style="rhombus;whiteSpace=wrap;html=1;" vertex="1" parent="1">
          <mxGeometry x="570" y="150" width="130" height="110" as="geometry" />
        </mxCell>
        <mxCell id="vbwBbtSfKdVoJIx_XN5K-17" value="voto em branco recebe 1 voto" style="whiteSpace=wrap;html=1;aspect=fixed;" vertex="1" parent="1">
          <mxGeometry x="777.5" y="165" width="80" height="80" as="geometry" />
        </mxCell>
        <mxCell id="vbwBbtSfKdVoJIx_XN5K-42" value="" style="edgeStyle=orthogonalEdgeStyle;rounded=0;orthogonalLoop=1;jettySize=auto;html=1;" edge="1" parent="1" source="vbwBbtSfKdVoJIx_XN5K-18" target="vbwBbtSfKdVoJIx_XN5K-19">
          <mxGeometry relative="1" as="geometry" />
        </mxCell>
        <mxCell id="vbwBbtSfKdVoJIx_XN5K-43" value="" style="edgeStyle=orthogonalEdgeStyle;rounded=0;orthogonalLoop=1;jettySize=auto;html=1;" edge="1" parent="1" source="vbwBbtSfKdVoJIx_XN5K-18" target="vbwBbtSfKdVoJIx_XN5K-20">
          <mxGeometry relative="1" as="geometry" />
        </mxCell>
        <mxCell id="vbwBbtSfKdVoJIx_XN5K-18" value="Caso o número = 8" style="rhombus;whiteSpace=wrap;html=1;" vertex="1" parent="1">
          <mxGeometry x="570" y="295" width="130" height="110" as="geometry" />
        </mxCell>
        <mxCell id="vbwBbtSfKdVoJIx_XN5K-19" value="voto nulo recebe 1 voto" style="whiteSpace=wrap;html=1;aspect=fixed;" vertex="1" parent="1">
          <mxGeometry x="777.5" y="310" width="80" height="80" as="geometry" />
        </mxCell>
        <mxCell id="vbwBbtSfKdVoJIx_XN5K-44" value="" style="edgeStyle=orthogonalEdgeStyle;rounded=0;orthogonalLoop=1;jettySize=auto;html=1;" edge="1" parent="1" source="vbwBbtSfKdVoJIx_XN5K-20" target="vbwBbtSfKdVoJIx_XN5K-21">
          <mxGeometry relative="1" as="geometry" />
        </mxCell>
        <mxCell id="vbwBbtSfKdVoJIx_XN5K-20" value="Caso o número = 0" style="rhombus;whiteSpace=wrap;html=1;" vertex="1" parent="1">
          <mxGeometry x="570" y="460" width="130" height="110" as="geometry" />
        </mxCell>
        <mxCell id="vbwBbtSfKdVoJIx_XN5K-45" value="" style="edgeStyle=orthogonalEdgeStyle;rounded=0;orthogonalLoop=1;jettySize=auto;html=1;" edge="1" parent="1" source="vbwBbtSfKdVoJIx_XN5K-21" target="vbwBbtSfKdVoJIx_XN5K-22">
          <mxGeometry relative="1" as="geometry" />
        </mxCell>
        <mxCell id="vbwBbtSfKdVoJIx_XN5K-21" value="Encerra votação" style="whiteSpace=wrap;html=1;aspect=fixed;" vertex="1" parent="1">
          <mxGeometry x="595" y="610" width="80" height="80" as="geometry" />
        </mxCell>
        <mxCell id="vbwBbtSfKdVoJIx_XN5K-46" value="" style="edgeStyle=orthogonalEdgeStyle;rounded=0;orthogonalLoop=1;jettySize=auto;html=1;" edge="1" parent="1" source="vbwBbtSfKdVoJIx_XN5K-22" target="vbwBbtSfKdVoJIx_XN5K-24">
          <mxGeometry relative="1" as="geometry" />
        </mxCell>
        <mxCell id="vbwBbtSfKdVoJIx_XN5K-22" value="Exibir % de votos de cada opção votada" style="whiteSpace=wrap;html=1;aspect=fixed;" vertex="1" parent="1">
          <mxGeometry x="595" y="730" width="80" height="80" as="geometry" />
        </mxCell>
        <mxCell id="vbwBbtSfKdVoJIx_XN5K-24" value="2" style="ellipse;whiteSpace=wrap;html=1;aspect=fixed;" vertex="1" parent="1">
          <mxGeometry x="615" y="850" width="40" height="40" as="geometry" />
        </mxCell>
        <mxCell id="vbwBbtSfKdVoJIx_XN5K-47" value="" style="edgeStyle=orthogonalEdgeStyle;rounded=0;orthogonalLoop=1;jettySize=auto;html=1;" edge="1" parent="1" source="vbwBbtSfKdVoJIx_XN5K-25" target="vbwBbtSfKdVoJIx_XN5K-26">
          <mxGeometry relative="1" as="geometry" />
        </mxCell>
        <mxCell id="vbwBbtSfKdVoJIx_XN5K-25" value="2" style="ellipse;whiteSpace=wrap;html=1;aspect=fixed;" vertex="1" parent="1">
          <mxGeometry x="980" y="50" width="40" height="40" as="geometry" />
        </mxCell>
        <mxCell id="vbwBbtSfKdVoJIx_XN5K-48" value="" style="edgeStyle=orthogonalEdgeStyle;rounded=0;orthogonalLoop=1;jettySize=auto;html=1;" edge="1" parent="1" source="vbwBbtSfKdVoJIx_XN5K-26" target="vbwBbtSfKdVoJIx_XN5K-27">
          <mxGeometry relative="1" as="geometry" />
        </mxCell>
        <mxCell id="vbwBbtSfKdVoJIx_XN5K-26" value="Exibir nº de votos de cada opção votada" style="whiteSpace=wrap;html=1;aspect=fixed;" vertex="1" parent="1">
          <mxGeometry x="960" y="155" width="80" height="80" as="geometry" />
        </mxCell>
        <mxCell id="vbwBbtSfKdVoJIx_XN5K-49" value="" style="edgeStyle=orthogonalEdgeStyle;rounded=0;orthogonalLoop=1;jettySize=auto;html=1;" edge="1" parent="1" source="vbwBbtSfKdVoJIx_XN5K-27" target="vbwBbtSfKdVoJIx_XN5K-28">
          <mxGeometry relative="1" as="geometry" />
        </mxCell>
        <mxCell id="vbwBbtSfKdVoJIx_XN5K-27" value="Exibir candidato ganhador + votos em branco" style="whiteSpace=wrap;html=1;aspect=fixed;" vertex="1" parent="1">
          <mxGeometry x="960" y="270" width="80" height="80" as="geometry" />
        </mxCell>
        <mxCell id="vbwBbtSfKdVoJIx_XN5K-50" value="" style="edgeStyle=orthogonalEdgeStyle;rounded=0;orthogonalLoop=1;jettySize=auto;html=1;" edge="1" parent="1" source="vbwBbtSfKdVoJIx_XN5K-28" target="vbwBbtSfKdVoJIx_XN5K-29">
          <mxGeometry relative="1" as="geometry" />
        </mxCell>
        <mxCell id="vbwBbtSfKdVoJIx_XN5K-28" value="&lt;br&gt;Exibir &quot;empate entre candidatos&quot; se houver" style="whiteSpace=wrap;html=1;aspect=fixed;" vertex="1" parent="1">
          <mxGeometry x="960" y="390" width="80" height="80" as="geometry" />
        </mxCell>
        <mxCell id="vbwBbtSfKdVoJIx_XN5K-29" value="FIM" style="rounded=1;whiteSpace=wrap;html=1;arcSize=50;" vertex="1" parent="1">
          <mxGeometry x="941.25" y="510" width="117.5" height="40" as="geometry" />
        </mxCell>
      </root>
    </mxGraphModel>
  </diagram>
</mxfile>
